<?xml version="1.0" encoding="iso-8859-1"?>
<!-- Generator: Adobe Illustrator 19.2.1, SVG Export Plug-In . SVG Version: 6.00 Build 0)  -->
<svg version="1.1" xmlns="http://www.w3.org/2000/svg" xmlns:xlink="http://www.w3.org/1999/xlink" x="0px" y="0px"
	 viewBox="0 0 32.041 32" style="enable-background:new 0 0 32.041 32;" xml:space="preserve">
<g id="Layer_33">
	<path style="fill:#95CC29;" d="M30,22v-4h-3.961l-2-2l-8.02,8L18,26c0,2.106,0,3.921,0,6c1,0,3,0,4,0c0-2,0-3.666,0-6h4v6
		c1,0,3,0,4,0c0-2,0-3.666,0-6l2-2L30,22z"/>
	<path style="fill:#666666;" d="M12.022,0h-0.002h-0.001C5.688,0.018,0.932,4.756,0.164,10.237C0.062,10.96,0,11.625,0,12.278
		c-0.007,1.999,0.617,3.747,2.081,6.33C3.55,21.212,5.904,24.79,9.59,30.727l0.023,0.037L9.64,30.8c0.588,0.786,1.488,1.2,2.371,1.2
		h0.01h0.01c0.883,0,1.783-0.414,2.37-1.2l0.026-0.035l0.023-0.037c0.806-1.298,1.548-2.484,2.232-3.572l-1.693-1.064
		c-0.673,1.071-1.405,2.24-2.198,3.516c-0.2,0.259-0.475,0.382-0.771,0.39c-0.296-0.008-0.571-0.131-0.771-0.39
		c-3.671-5.91-6.025-9.497-7.425-11.982C2.413,15.11,2.007,13.842,2,12.278c0-0.524,0.05-1.096,0.144-1.763
		C2.783,5.981,6.739,2.004,12.02,2c5.281,0.004,9.237,3.981,9.875,8.515v0c0.094,0.667,0.144,1.239,0.144,1.763
		c-0.001,0.706-0.087,1.33-0.299,2.043l1.916,0.574c0.267-0.886,0.384-1.739,0.383-2.616c0-0.653-0.062-1.318-0.164-2.041v0
		C23.107,4.756,18.351,0.018,12.022,0z"/>
	<path style="fill:#666666;" d="M8.039,12c0.002,2.208,1.792,3.998,4,4c2.208-0.002,3.998-1.792,4-4c-0.002-2.208-1.792-3.998-4-4
		C9.831,8.002,8.041,9.792,8.039,12z M14.039,12c-0.002,1.1-0.9,1.998-2,2c-1.1-0.002-1.998-0.9-2-2c0.002-1.1,0.9-1.998,2-2
		C13.14,10.002,14.038,10.9,14.039,12z"/>
	<rect x="0.041" style="fill:none;" width="32" height="32"/>
</g>
<g id="Layer_1">
</g>
</svg>
