<?xml version="1.0" ?><svg enable-background="new 0 0 64 64" height="64px" version="1.1" viewBox="0 0 64 64" width="64px" xml:space="preserve" xmlns="http://www.w3.org/2000/svg" xmlns:xlink="http://www.w3.org/1999/xlink"><g id="_x31_-Call"/><g id="_x32_-24_Hours_Call"/><g id="_x33_-Sending_Call"/><g id="_x34_-Incoming_Call"/><g id="_x35_-Talk_On_Phone"/><g id="_x36_-Block_Call"/><g id="_x37_-Hold_Call"/><g id="_x38_-Mute_Call"/><g id="_x39_-Phone_Book"/><g id="_x31_0-Add_Contact"/><g id="_x31_1-Delete_Contact"/><g id="_x31_2-Mail"/><g id="_x31_3-Message_Read"/><g id="_x31_4-Email"/><g id="_x31_5-Send_Mail"/><g id="_x31_6-Important_Mail"/><g id="_x31_7-Mail_Chain"/><g id="_x31_8-Messaging"/><g id="_x31_9-Sending"/><g id="_x32_0-Chat"/><g id="_x32_1-Mail_Attachment"/><g id="_x32_2-Mobile_Link"/><g id="_x32_3-Smartphone"/><g id="_x32_4-Social_Media"/><g id="_x32_5-Support"/><g id="_x32_6-Links"/><g id="_x32_7-Phone"><path d="M52.1478348,42.6777344l-6.4785156-4.5263672c-0.847168-0.5908203-1.8374023-0.9023438-2.8642578-0.9023438   c-1.6328125,0-3.1655273,0.8007813-4.0991211,2.140625l-1.5039063,2.1552734   c-2.5205078-1.6904297-5.3330097-4.0507813-8.0141621-6.7314453c-2.6806641-2.6806641-5.0405273-5.4931641-6.7304688-8.0136719   l2.1542969-1.5039063c1.0981445-0.7646484,1.831543-1.9101563,2.0644531-3.2246094   c0.2324219-1.3134766-0.0605469-2.640625-0.8261719-3.7392578l-4.5253906-6.4785156   C20.3783016,10.5,18.8514462,9.6914063,17.2396297,9.6914063c-0.5585938,0-1.1064453,0.0986328-1.6279297,0.2910156   c-0.5922852,0.21875-1.144043,0.4873047-1.6850586,0.8271484l-0.8945313,0.6298828   c-0.2236328,0.1738281-0.4316406,0.3642578-0.6308594,0.5634766c-1.0913086,1.0908203-1.8657227,2.4716797-2.3027344,4.1044922   c-1.8647461,6.9902344,2.7548828,17.5605469,11.4951172,26.3007813   c7.3398438,7.3398438,16.1577168,11.8994141,23.0117207,11.9003906h0.0004883c1.1738281,0,2.2802734-0.1367188,3.2890625-0.40625   c1.6328125-0.4365234,3.0136719-1.2109375,4.1054688-2.3027344c0.1982422-0.1982422,0.3876953-0.40625,0.5908203-0.6689453   l0.6303711-0.8994141c0.3081055-0.4921875,0.5761719-1.0439453,0.7978516-1.640625   C54.7816238,46.3300781,54.0120926,43.9804688,52.1478348,42.6777344z"/></g><g id="_x32_8-Phone-2"/><g id="_x32_9-Map"/><g id="_x33_0-Location"/><g id="_x33_1-Write"/><g id="_x33_2-World"/><g id="_x33_3-Home"/><g id="_x33_4-Calendar"/><g id="_x33_5-Website"/><g id="_x33_6-Info"/><g id="_x33_7-Bull_Horn"/><g id="_x33_8-Profile"/><g id="_x33_9-Quote__x26__Answer"/><g id="_x34_0-Notification"/><g id="_x34_1-Share"/><g id="_x34_2-Time"/></svg>