<?xml version="1.0" ?><!DOCTYPE svg  PUBLIC '-//W3C//DTD SVG 1.1//EN'  'http://www.w3.org/Graphics/SVG/1.1/DTD/svg11.dtd'><svg id="Layer_1" style="enable-background:new 0 0 75 75;" version="1.1" viewBox="0 0 75 75" xml:space="preserve" xmlns="http://www.w3.org/2000/svg" xmlns:xlink="http://www.w3.org/1999/xlink"><style type="text/css">
	.st0{fill:#EC008C;}
	.st1{fill:#FFFFFF;}
	.st2{fill:#00AAAD;}
	.st3{fill:#F9A01B;}
	.st4{fill:#B2D235;}
</style><g><path class="st0" d="M62.5,73.5h-50c-6.1,0-11-4.9-11-11v-50c0-6.1,4.9-11,11-11h50c6.1,0,11,4.9,11,11v50   C73.5,68.6,68.6,73.5,62.5,73.5z"/><g><g><path class="st1" d="M41.5,26.5c-1.1,1.1-1.1,2.9,0,4l3.3,3.3c1.4,1.4,0,5-3,8c-3,3-6.6,4.4-8,3l-3.3-3.3c-1.1-1.1-2.9-1.1-4,0     l-7.9,7.9c-1.1,1.1-1.1,2.9,0,4l2.1,2.1c4.4,4.4,15.8,0.1,25.4-9.5c9.6-9.6,13.9-21,9.5-25.4l-2.1-2.1c-1.1-1.1-2.9-1.1-4,0     L41.5,26.5z"/></g></g></g></svg>